HIERARCHY
ROOT joint_Root
{
	OFFSET 0.0 0.0 0.0
	CHANNELS 6 Xposition Yposition Zposition Zrotation Xrotation Yrotation 
	JOINT Hips
	{
		OFFSET 4.5925 91.4895 -427.239
		CHANNELS 6 Xposition Yposition Zposition Zrotation Xrotation Yrotation 
		JOINT Spine
		{
			OFFSET 15.7357 0.0 0.0
			CHANNELS 6 Xposition Yposition Zposition Zrotation Xrotation Yrotation 
			JOINT Chest
			{
				OFFSET 8.98455 -0.406207 0.0
				CHANNELS 6 Xposition Yposition Zposition Zrotation Xrotation Yrotation 
				JOINT Neck
				{
					OFFSET 16.3773 0.0 0.0
					CHANNELS 6 Xposition Yposition Zposition Zrotation Xrotation Yrotation 
					JOINT Head
					{
						OFFSET 6.45672 0.0 0.0
						CHANNELS 6 Xposition Yposition Zposition Zrotation Xrotation Yrotation 
						End Site
						{
							OFFSET 0.0 0.0 0.0
						}
					}
				}
				JOINT Shoulder_L
				{
					OFFSET 12.9942 -0.242716 4.98039
					CHANNELS 6 Xposition Yposition Zposition Zrotation Xrotation Yrotation 
					JOINT UpperArm_L
					{
						OFFSET 5.34809 0.0 0.0
						CHANNELS 6 Xposition Yposition Zposition Zrotation Xrotation Yrotation 
						JOINT LowerArm_L
						{
							OFFSET 24.3286 1.87007e-05 0.0
							CHANNELS 6 Xposition Yposition Zposition Zrotation Xrotation Yrotation 
							JOINT Hand_L
							{
								OFFSET 22.2916 0.0 0.0
								CHANNELS 6 Xposition Yposition Zposition Zrotation Xrotation Yrotation 
								End Site
								{
									OFFSET 0.0 0.0 0.0
								}
							}
						}
					}
				}
				JOINT Shoulder_R
				{
					OFFSET 12.9945 -0.242716 -4.98039
					CHANNELS 6 Xposition Yposition Zposition Zrotation Xrotation Yrotation 
					JOINT UpperArm_R
					{
						OFFSET -5.34813 0.0 0.0
						CHANNELS 6 Xposition Yposition Zposition Zrotation Xrotation Yrotation 
						JOINT LowerArm_R
						{
							OFFSET -24.3289 0.000322201 0.0
							CHANNELS 6 Xposition Yposition Zposition Zrotation Xrotation Yrotation 
							JOINT Hand_R
							{
								OFFSET -22.2915 -0.000108084 0.0
								CHANNELS 6 Xposition Yposition Zposition Zrotation Xrotation Yrotation 
								End Site
								{
									OFFSET 0.0 0.0 0.0
								}
							}
						}
					}
				}
			}
		}
		JOINT UpperLeg_L
		{
			OFFSET -2.19248 -6.46944 0.0
			CHANNELS 6 Xposition Yposition Zposition Zrotation Xrotation Yrotation 
			JOINT LowerLeg_L
			{
				OFFSET 39.0811 0.0 -1.23785e-05
				CHANNELS 6 Xposition Yposition Zposition Zrotation Xrotation Yrotation 
				JOINT Foot_L
				{
					OFFSET 40.9854 0.0 -1.26872e-05
					CHANNELS 6 Xposition Yposition Zposition Zrotation Xrotation Yrotation 
					JOINT Toes_L
					{
						OFFSET 11.7543 0.0 0.0
						CHANNELS 6 Xposition Yposition Zposition Zrotation Xrotation Yrotation 
						End Site
						{
							OFFSET 0.0 0.0 0.0
						}
					}
				}
			}
		}
		JOINT UpperLeg_R
		{
			OFFSET -2.19251 6.46944 0.0
			CHANNELS 6 Xposition Yposition Zposition Zrotation Xrotation Yrotation 
			JOINT LowerLeg_R
			{
				OFFSET -39.0811 -0.00228153 -0.0401928
				CHANNELS 6 Xposition Yposition Zposition Zrotation Xrotation Yrotation 
				JOINT Foot_R
				{
					OFFSET -40.9854 0.0 0.0
					CHANNELS 6 Xposition Yposition Zposition Zrotation Xrotation Yrotation 
					JOINT Toes_R
					{
						OFFSET -11.7543 0.0 0.0
						CHANNELS 6 Xposition Yposition Zposition Zrotation Xrotation Yrotation 
						End Site
						{
							OFFSET 0.0 0.0 0.0
						}
					}
				}
			}
		}
	}
}
MOTION
Frames:	4
Frame Time:	0.0333333
0.000000 0.000000 0.000000 0.000000 0.000000 -0.000000 -4.405940 83.324800 -1.059250 88.433900 4.320380 10.442900 15.735700 0.000005 -0.000001 97.634300 79.525600 -100.185000 8.984550 -0.406207 -0.000000 13.071600 2.636910 -5.404680 16.377300 -0.000001 -0.000001 -0.144390 -9.335310 1.400170 6.456720 -0.000001 -0.000000 -3.595090 -17.762700 11.159700 12.994200 -0.242716 4.980390 -93.021700 6.935130 -66.386000 5.348090 -0.000007 -0.000001 -72.573800 7.842350 7.325560 24.328600 0.000019 0.000005 -4.469520 -10.966300 -22.335900 22.291600 -0.000001 0.000005 22.365300 4.946280 8.439310 12.994500 -0.242716 -4.980390 88.418600 9.186710 -80.189300 -5.348130 -0.000001 -0.000004 -66.154400 24.843500 -1.908910 -24.328900 0.000322 -0.000009 -6.889280 -11.989800 -30.178600 -22.291500 -0.000108 -0.000004 17.817000 5.420780 -3.627950 -2.192480 -6.469440 -0.000000 -171.981000 -5.540120 -16.268100 39.081100 -0.000007 -0.000012 -0.455836 0.272674 59.113800 40.985400 -0.000006 -0.000013 0.122681 8.056190 -82.712300 11.754300 -0.000000 0.000003 -0.000302 -0.002619 -16.675100 -2.192510 6.469440 -0.000001 179.820000 18.791300 166.450000 -39.081100 -0.002282 -0.040193 0.108251 -0.063383 58.893500 -40.985400 0.000008 0.000006 7.185360 -0.166032 -84.034200 -11.754300 -0.000006 -0.000006 -1.199960 -1.487010 -17.186400
0.000000 0.000000 0.000000 0.000000 0.000000 -0.000000 -2.812290 85.105500 -0.958631 89.977000 2.649630 8.793220 15.735700 0.000005 -0.000001 101.641000 80.548700 -103.195000 8.984550 -0.406207 -0.000000 10.817800 3.745320 -3.462220 16.377300 -0.000001 -0.000001 0.931606 -9.505420 1.611550 6.456720 -0.000001 -0.000000 -3.174570 -18.068600 9.933770 12.994200 -0.242716 4.980390 -92.849700 5.957290 -64.376600 5.348090 -0.000007 -0.000001 -70.721500 0.916586 4.560010 24.328600 0.000019 0.000005 -5.465110 -11.056900 -26.515000 22.291600 -0.000001 0.000005 21.546500 5.009060 7.126910 12.994500 -0.242716 -4.980390 88.329700 8.924860 -79.354800 -5.348130 -0.000001 -0.000004 -65.328400 21.427600 -0.554974 -24.328900 0.000322 -0.000009 -5.973130 -11.257400 -28.185800 -22.291500 -0.000108 -0.000004 18.557500 5.390260 -2.623540 -2.192480 -6.469440 -0.000000 -174.815000 -7.531500 -14.527100 39.081100 -0.000007 -0.000012 -0.370249 0.273766 53.521300 40.985400 -0.000006 -0.000013 0.885915 7.268450 -80.333600 11.754300 -0.000000 0.000003 -0.000241 -0.002167 -16.658800 -2.192510 6.469440 -0.000001 177.234000 18.490500 167.028000 -39.081100 -0.002282 -0.040193 0.089271 -0.061492 54.447300 -40.985400 0.000008 0.000006 6.827390 2.594980 -81.378600 -11.754300 -0.000006 -0.000006 -1.130350 -1.391460 -17.431000
0.000000 0.000000 0.000000 0.000000 0.000000 -0.000000 -1.285660 87.204500 -0.789508 91.265900 2.009840 7.720360 15.735700 0.000005 -0.000001 105.614000 81.654000 -105.803000 8.984550 -0.406207 -0.000000 8.336310 4.471160 -0.704720 16.377300 -0.000001 -0.000001 3.184780 -9.543290 1.744790 6.456720 -0.000001 -0.000000 -2.228980 -17.285100 8.095700 12.994200 -0.242716 4.980390 -92.224400 4.568870 -64.005800 5.348090 -0.000007 -0.000001 -66.105900 -5.833850 -4.911710 24.328600 0.000019 0.000005 -5.194530 -8.988130 -30.194100 22.291600 -0.000001 0.000005 23.881800 5.042410 6.403710 12.994500 -0.242716 -4.980390 88.437500 7.743840 -78.555800 -5.348130 -0.000001 -0.000004 -64.863300 19.316300 1.176480 -24.328900 0.000322 -0.000009 -6.196020 -12.427000 -26.766700 -22.291500 -0.000108 -0.000004 18.227300 5.414460 -3.413410 -2.192480 -6.469440 -0.000000 -177.310000 -8.997870 -11.560600 39.081100 -0.000007 -0.000012 -0.244143 0.234883 46.108000 40.985400 -0.000006 -0.000013 1.778350 7.353440 -77.000400 11.754300 -0.000000 0.000003 -0.000144 -0.001401 -16.630900 -2.192510 6.469440 -0.000001 174.612000 19.204800 168.978000 -39.081100 -0.002282 -0.040193 0.071245 -0.060142 48.505700 -40.985400 0.000008 0.000006 6.074720 5.520380 -77.457400 -11.754300 -0.000006 -0.000006 -1.202780 -1.460490 -18.146900
0.000000 0.000000 0.000000 0.000000 0.000000 -0.000000 -0.107997 88.866500 -0.675007 91.774100 1.914280 7.170510 15.735700 0.000005 -0.000001 107.455000 82.775000 -106.064000 8.984550 -0.406207 -0.000000 5.980900 4.301200 2.555730 16.377300 -0.000001 -0.000001 5.892250 -9.711520 1.850340 6.456720 -0.000001 -0.000000 -1.382760 -16.107800 6.406690 12.994200 -0.242716 4.980390 -91.398100 2.973330 -64.803400 5.348090 -0.000007 -0.000001 -59.867800 -14.378700 -17.675800 24.328600 0.000019 0.000005 -5.941300 -8.405870 -35.449300 22.291600 -0.000001 0.000005 23.132400 5.100620 5.098740 12.994500 -0.242716 -4.980390 88.595000 6.407550 -77.604700 -5.348130 -0.000001 -0.000004 -63.747000 18.600300 1.875650 -24.328900 0.000322 -0.000009 -5.764710 -11.901500 -26.078600 -22.291500 -0.000108 -0.000004 16.100900 5.398890 -2.900360 -2.192480 -6.469440 -0.000000 -178.474000 -10.748500 -8.567280 39.081100 -0.000007 -0.000012 -0.140714 0.170997 39.451600 40.985400 -0.000006 -0.000013 2.761240 8.794390 -73.998200 11.754300 -0.000000 0.000003 -0.000064 -0.000703 -16.604700 -2.192510 6.469440 -0.000001 173.329000 19.044200 171.092000 -39.081100 -0.002282 -0.040193 0.053221 -0.053462 43.055500 -40.985400 0.000008 0.000006 4.885290 6.519400 -73.597900 -11.754300 -0.000006 -0.000006 -1.277810 -1.526340 -18.950800
